<svg width="220" height="194" viewBox="0 0 220 194" fill="none" xmlns="http://www.w3.org/2000/svg">
<path d="M46 0.00012207V48.0001C46 51.8661 49.134 55.0001 53 55.0001H56" stroke="#383838" stroke-width="2"/>
<path d="M38 0.00012207V149C38 152.866 41.134 156 45 156H48" stroke="#383838" stroke-width="2"/>
<path d="M29 0.00012207V66.0001C29 69.8661 25.866 73.0001 22 73.0001H21" stroke="#383838" stroke-width="2"/>
<path d="M65 53.5C65 56.5376 62.5376 59 59.5 59C56.4624 59 54 56.5376 54 53.5C54 50.4624 56.4624 48 59.5 48C62.5376 48 65 50.4624 65 53.5ZM56.1331 53.5C56.1331 55.3595 57.6405 56.8669 59.5 56.8669C61.3595 56.8669 62.8669 55.3595 62.8669 53.5C62.8669 51.6405 61.3595 50.1331 59.5 50.1331C57.6405 50.1331 56.1331 51.6405 56.1331 53.5Z" fill="#D54FF6" class="fill"/>
<path d="M23 71C23 74.866 19.866 78 16 78C12.134 78 9 74.866 9 71C9 67.134 12.134 64 16 64C19.866 64 23 67.134 23 71ZM11.7149 71C11.7149 73.3666 13.6334 75.2851 16 75.2851C18.3666 75.2851 20.2851 73.3666 20.2851 71C20.2851 68.6334 18.3666 66.7149 16 66.7149C13.6334 66.7149 11.7149 68.6334 11.7149 71Z" fill="#D54FF6" class="fill"/>
<path d="M177 194L177 146C177 142.134 173.866 139 170 139L167 139" stroke="#383838" stroke-width="2"/>
<path d="M185 194L185 47C185 43.134 181.866 40 178 40L175 40" stroke="#383838" stroke-width="2"/>
<path d="M194 194L194 128C194 124.134 197.134 121 201 121L202 121" stroke="#383838" stroke-width="2"/>
<path d="M159 140C159 137.239 161.239 135 164 135C166.761 135 169 137.239 169 140C169 142.761 166.761 145 164 145C161.239 145 159 142.761 159 140ZM167.061 140C167.061 138.31 165.69 136.939 164 136.939C162.31 136.939 160.939 138.31 160.939 140C160.939 141.69 162.31 143.061 164 143.061C165.69 143.061 167.061 141.69 167.061 140Z" fill="#D54FF6" class="fill"/>
<path d="M200 123C200 119.134 203.134 116 207 116C210.866 116 214 119.134 214 123C214 126.866 210.866 130 207 130C203.134 130 200 126.866 200 123ZM211.285 123C211.285 120.633 209.367 118.715 207 118.715C204.633 118.715 202.715 120.633 202.715 123C202.715 125.367 204.633 127.285 207 127.285C209.367 127.285 211.285 125.367 211.285 123Z" fill="#D54FF6" class="fill" />
<rect x="184" y="59" width="2" height="19" rx="1" fill="#D54FF6" class="fill"/>
<rect x="28" y="12.0001" width="2" height="19" rx="1" fill="#D54FF6" class="fill"/>
<rect x="37" y="50" width="2" height="19" rx="1" fill="#D54FF6" class="fill"/>
<rect x="176" y="162" width="2" height="19" rx="1" fill="#D54FF6" class="fill"/>
<path d="M20 194V175C20 171.134 23.134 168 27 168H30" stroke="#D54FF6" stroke-width="2" class="stroke"/>
<path d="M205 0.00012207L205 24.0001C205 27.8661 201.866 31.0001 198 31.0001L195 31.0001" stroke="#D54FF6" stroke-width="2" class="stroke"/>
</svg>
