<svg width="65" height="44" viewBox="0 0 65 44" fill="none" xmlns="http://www.w3.org/2000/svg">
<path d="M18.9583 13.7517H21.6667C22.385 13.7517 23.0738 14.0414 23.5817 14.5571C24.0897 15.0728 24.375 15.7723 24.375 16.5016C24.375 17.2309 24.0897 17.9303 23.5817 18.446C23.0738 18.9617 22.385 19.2514 21.6667 19.2514H18.9583V22.0013C18.9583 22.7306 18.673 23.43 18.1651 23.9457C17.6572 24.4614 16.9683 24.7511 16.25 24.7511C15.5317 24.7511 14.8428 24.4614 14.3349 23.9457C13.827 23.43 13.5417 22.7306 13.5417 22.0013V19.2514H10.8333C10.115 19.2514 9.42616 18.9617 8.91825 18.446C8.41034 17.9303 8.125 17.2309 8.125 16.5016C8.125 15.7723 8.41034 15.0728 8.91825 14.5571C9.42616 14.0414 10.115 13.7517 10.8333 13.7517H13.5417V11.0019C13.5417 10.2726 13.827 9.57315 14.3349 9.05745C14.8428 8.54176 15.5317 8.25204 16.25 8.25204C16.9683 8.25204 17.6572 8.54176 18.1651 9.05745C18.673 9.57315 18.9583 10.2726 18.9583 11.0019V13.7517ZM25.2362 2.75236H39.7637C42.2122 1.10238 45.0554 0.157404 47.9909 0.0180171C50.9263 -0.121369 53.844 0.550055 56.4334 1.96081C59.0228 3.37157 61.187 5.46885 62.6955 8.02939C64.204 10.5899 65.0004 13.5179 65 16.5016C65 25.6145 57.7254 44 48.75 44C43.3983 44 38.6506 37.4609 35.6904 30.2508H29.3096C26.3521 37.4609 21.6017 44 16.25 44C7.27458 44 1.87999e-07 25.6145 1.87999e-07 16.5016C-0.000446744 13.5179 0.795986 10.5899 2.30451 8.02939C3.81304 5.46885 5.9772 3.37157 8.5666 1.96081C11.156 0.550055 14.0737 -0.121369 17.0091 0.0180171C19.9446 0.157404 22.7878 1.10238 25.2362 2.75236ZM41.3996 8.25204H23.6004L22.2354 7.33084C20.6029 6.23212 18.7075 5.60332 16.751 5.51136C14.7945 5.41939 12.85 5.8677 11.1245 6.80858C9.39893 7.74945 7.9569 9.1477 6.95182 10.8545C5.94674 12.5614 5.4162 14.5129 5.41667 16.5016C5.41667 25.0728 12.3012 38.5003 16.25 38.5003C18.2054 38.5003 21.6775 34.546 24.31 28.1334L25.7021 24.7511H39.3033L40.6927 28.1334C43.3225 34.546 46.7946 38.5003 48.75 38.5003C52.6987 38.5003 59.5833 25.0728 59.5833 16.5016C59.5838 14.5129 59.0533 12.5614 58.0482 10.8545C57.0431 9.1477 55.6011 7.74945 53.8755 6.80858C52.15 5.8677 50.2055 5.41939 48.249 5.51136C46.2925 5.60332 44.3971 6.23212 42.7646 7.33084L41.3996 8.25204ZM48.75 13.7517C48.0317 13.7517 47.3428 13.462 46.8349 12.9463C46.327 12.4306 46.0417 11.7312 46.0417 11.0019C46.0417 10.2726 46.327 9.57315 46.8349 9.05745C47.3428 8.54176 48.0317 8.25204 48.75 8.25204C49.4683 8.25204 50.1572 8.54176 50.6651 9.05745C51.173 9.57315 51.4583 10.2726 51.4583 11.0019C51.4583 11.7312 51.173 12.4306 50.6651 12.9463C50.1572 13.462 49.4683 13.7517 48.75 13.7517ZM43.3333 19.2514C42.615 19.2514 41.9262 18.9617 41.4183 18.446C40.9103 17.9303 40.625 17.2309 40.625 16.5016C40.625 15.7723 40.9103 15.0728 41.4183 14.5571C41.9262 14.0414 42.615 13.7517 43.3333 13.7517C44.0516 13.7517 44.7405 14.0414 45.2484 14.5571C45.7563 15.0728 46.0417 15.7723 46.0417 16.5016C46.0417 17.2309 45.7563 17.9303 45.2484 18.446C44.7405 18.9617 44.0516 19.2514 43.3333 19.2514ZM54.1667 19.2514C53.4484 19.2514 52.7595 18.9617 52.2516 18.446C51.7437 17.9303 51.4583 17.2309 51.4583 16.5016C51.4583 15.7723 51.7437 15.0728 52.2516 14.5571C52.7595 14.0414 53.4484 13.7517 54.1667 13.7517C54.885 13.7517 55.5738 14.0414 56.0817 14.5571C56.5897 15.0728 56.875 15.7723 56.875 16.5016C56.875 17.2309 56.5897 17.9303 56.0817 18.446C55.5738 18.9617 54.885 19.2514 54.1667 19.2514ZM48.75 24.7511C48.0317 24.7511 47.3428 24.4614 46.8349 23.9457C46.327 23.43 46.0417 22.7306 46.0417 22.0013C46.0417 21.272 46.327 20.5725 46.8349 20.0568C47.3428 19.5411 48.0317 19.2514 48.75 19.2514C49.4683 19.2514 50.1572 19.5411 50.6651 20.0568C51.173 20.5725 51.4583 21.272 51.4583 22.0013C51.4583 22.7306 51.173 23.43 50.6651 23.9457C50.1572 24.4614 49.4683 24.7511 48.75 24.7511Z" fill="#52F64F"/>
</svg>
