<svg width="47" height="54" viewBox="0 0 47 54" fill="none" xmlns="http://www.w3.org/2000/svg">
<path d="M24.3575 5.0625V7.5625H26.8575H29.3938V9.3125H26.8575H24.3575V11.8125V16.875V19.375H26.8575H43.6431C43.7754 19.3751 43.9063 19.4064 44.0254 19.4671L45.16 17.2394L44.0254 19.4671C44.1445 19.5278 44.2491 19.6164 44.3299 19.7269C44.4107 19.8375 44.4651 19.9665 44.4879 20.1038C44.5096 20.234 44.502 20.3672 44.4661 20.4936L37.3873 41.375H9.61265L2.53391 20.4936C2.498 20.3672 2.49043 20.234 2.51206 20.1038C2.53486 19.9665 2.58933 19.8375 2.67012 19.7269C2.75088 19.6164 2.85546 19.5278 2.97462 19.4671L1.84366 17.2465L2.97463 19.4671C3.09374 19.4064 3.22463 19.3751 3.35686 19.375H20.1425H22.6425V16.875V11.8125V9.3125H20.1425H17.6062V7.5625H20.1425H22.6425V5.0625V2.5H24.3575V5.0625ZM5.85491 51.5V49.75H41.1451V51.5H5.85491Z" stroke="#52F64F" stroke-width="5"/>
</svg>
