<svg width="81" height="81" viewBox="0 0 81 81" fill="none" xmlns="http://www.w3.org/2000/svg">
<circle cx="40.5" cy="40.5" r="38.1635" fill="#454545" stroke="white" stroke-width="4.67308"/>
<path d="M32.798 40.5833C32.9444 40.5208 33.1019 40.4883 33.2612 40.4877C33.4204 40.4872 33.5781 40.5185 33.725 40.5799C33.8719 40.6414 34.005 40.7316 34.1164 40.8454C34.2278 40.9591 34.3153 41.094 34.3737 41.2422C34.4321 41.3903 34.4602 41.5486 34.4563 41.7078C34.4524 41.867 34.4167 42.0238 34.3512 42.1689C34.2857 42.314 34.1918 42.4446 34.075 42.5528C33.9581 42.661 33.8208 42.7447 33.6711 42.7989C32.8749 43.1126 32.1915 43.6587 31.7099 44.3662C31.2282 45.0736 30.9707 45.9097 30.9707 46.7655V48.8381C30.9707 49.1541 31.0962 49.457 31.3196 49.6804C31.543 49.9038 31.846 50.0293 32.1619 50.0293H41.6913C42.0072 50.0293 42.3102 49.9038 42.5336 49.6804C42.757 49.457 42.8825 49.1541 42.8825 48.8381V46.8763C42.8826 45.993 42.6143 45.1305 42.1131 44.4032C41.6119 43.6759 40.9015 43.118 40.0761 42.8036C39.9254 42.7514 39.7868 42.6694 39.6685 42.5626C39.5501 42.4557 39.4544 42.3262 39.387 42.1817C39.3196 42.0372 39.282 41.8806 39.2762 41.7213C39.2704 41.5619 39.2967 41.403 39.3535 41.2541C39.4103 41.1051 39.4965 40.969 39.6068 40.8539C39.7172 40.7388 39.8495 40.647 39.996 40.584C40.1425 40.521 40.3001 40.4881 40.4595 40.4872C40.619 40.4862 40.777 40.5173 40.9242 40.5785C42.2007 41.0647 43.2993 41.9273 44.0744 43.052C44.8496 44.1767 45.2647 45.5103 45.2648 46.8763V48.8381C45.2648 49.7859 44.8884 50.6948 44.2182 51.365C43.548 52.0352 42.6391 52.4117 41.6913 52.4117H32.1619C31.2141 52.4117 30.3052 52.0352 29.635 51.365C28.9649 50.6948 28.5884 49.7859 28.5884 48.8381V46.7655C28.5885 45.4316 28.9901 44.1286 29.7409 43.026C30.4917 41.9234 31.5569 41.0723 32.798 40.5833ZM36.9266 28.5881C38.1903 28.5881 39.4022 29.0901 40.2958 29.9837C41.1893 30.8773 41.6913 32.0892 41.6913 33.3529V35.7352C41.6913 36.9989 41.1893 38.2108 40.2958 39.1044C39.4022 39.9979 38.1903 40.4999 36.9266 40.4999C35.6629 40.4999 34.451 39.9979 33.5575 39.1044C32.6639 38.2108 32.1619 36.9989 32.1619 35.7352V33.3529C32.1619 32.0892 32.6639 30.8773 33.5575 29.9837C34.451 29.0901 35.6629 28.5881 36.9266 28.5881ZM36.9266 30.9705C36.2948 30.9705 35.6888 31.2215 35.242 31.6683C34.7953 32.1151 34.5443 32.721 34.5443 33.3529V35.7352C34.5443 36.367 34.7953 36.973 35.242 37.4198C35.6888 37.8666 36.2948 38.1176 36.9266 38.1176C37.5585 38.1176 38.1644 37.8666 38.6112 37.4198C39.058 36.973 39.309 36.367 39.309 35.7352V33.3529C39.309 32.721 39.058 32.1151 38.6112 31.6683C38.1644 31.2215 37.5585 30.9705 36.9266 30.9705ZM47.6472 51.2205C47.3313 51.2205 47.0283 51.095 46.8049 50.8716C46.5815 50.6482 46.456 50.3452 46.456 50.0293C46.456 49.7134 46.5815 49.4104 46.8049 49.187C47.0283 48.9636 47.3313 48.8381 47.6472 48.8381H48.8384C49.1543 48.8381 49.4573 48.7127 49.6807 48.4893C49.9041 48.2659 50.0296 47.9629 50.0296 47.647V45.4576C50.0295 44.6108 49.763 43.7856 49.2679 43.0987C48.7728 42.4118 48.0741 41.8981 47.2708 41.6303C46.971 41.5305 46.7231 41.3157 46.5817 41.0331C46.4403 40.7505 46.4169 40.4233 46.5168 40.1235C46.6166 39.8237 46.8314 39.5758 47.114 39.4344C47.3966 39.293 47.7238 39.2697 48.0236 39.3695C49.3015 39.7953 50.413 40.6124 51.2006 41.7051C51.9882 42.7978 52.412 44.1106 52.4119 45.4576V47.647C52.4119 48.5947 52.0354 49.5037 51.3652 50.1738C50.6951 50.844 49.7861 51.2205 48.8384 51.2205H47.6472ZM44.0737 29.7793C43.7578 29.7793 43.4548 29.6538 43.2314 29.4304C43.008 29.207 42.8825 28.9041 42.8825 28.5881C42.8825 28.2722 43.008 27.9692 43.2314 27.7459C43.4548 27.5225 43.7578 27.397 44.0737 27.397C45.3374 27.397 46.5493 27.899 47.4428 28.7925C48.3364 29.6861 48.8384 30.898 48.8384 32.1617V34.544C48.8384 35.8077 48.3364 37.0196 47.4428 37.9132C46.5493 38.8067 45.3374 39.3087 44.0737 39.3087C43.7578 39.3087 43.4548 39.1832 43.2314 38.9598C43.008 38.7365 42.8825 38.4335 42.8825 38.1176C42.8825 37.8016 43.008 37.4987 43.2314 37.2753C43.4548 37.0519 43.7578 36.9264 44.0737 36.9264C44.7055 36.9264 45.3115 36.6754 45.7582 36.2286C46.205 35.7818 46.456 35.1759 46.456 34.544V32.1617C46.456 31.5298 46.205 30.9239 45.7582 30.4771C45.3115 30.0303 44.7055 29.7793 44.0737 29.7793Z" fill="white"/>
</svg>
