<svg width="49" height="38" viewBox="0 0 49 38" fill="none" xmlns="http://www.w3.org/2000/svg">
<path d="M25.2024 19.4918C26.3924 18.4594 27.347 17.1824 28.0012 15.7477C28.6554 14.3129 28.9939 12.7539 28.9939 11.1765C28.9939 8.21229 27.819 5.36951 25.7277 3.27351C23.6364 1.17752 20.8 3.99919e-07 17.8424 3.99919e-07C14.8848 3.99919e-07 12.0484 1.17752 9.9571 3.27351C7.86579 5.36951 6.6909 8.21229 6.6909 11.1765C6.69089 12.7539 7.02947 14.3129 7.68367 15.7477C8.33787 17.1824 9.29238 18.4594 10.4824 19.4918C7.36031 20.9087 4.71143 23.1968 2.85251 26.0826C0.993588 28.9684 0.00328268 32.3298 0 35.7647C0 36.3575 0.234977 36.9261 0.65324 37.3453C1.0715 37.7645 1.63879 38 2.2303 38C2.82181 38 3.3891 37.7645 3.80736 37.3453C4.22563 36.9261 4.4606 36.3575 4.4606 35.7647C4.4606 32.2077 5.87047 28.7964 8.38004 26.2812C10.8896 23.766 14.2933 22.3529 17.8424 22.3529C21.3915 22.3529 24.7952 23.766 27.3048 26.2812C29.8144 28.7964 31.2242 32.2077 31.2242 35.7647C31.2242 36.3575 31.4592 36.9261 31.8775 37.3453C32.2957 37.7645 32.863 38 33.4545 38C34.046 38 34.6133 37.7645 35.0316 37.3453C35.4498 36.9261 35.6848 36.3575 35.6848 35.7647C35.6815 32.3298 34.6912 28.9684 32.8323 26.0826C30.9734 23.1968 28.3245 20.9087 25.2024 19.4918ZM17.8424 17.8824C16.5191 17.8824 15.2255 17.4891 14.1251 16.7522C13.0248 16.0154 12.1672 14.968 11.6608 13.7427C11.1544 12.5174 11.0219 11.169 11.2801 9.86822C11.5382 8.5674 12.1755 7.37253 13.1112 6.4347C14.047 5.49686 15.2392 4.85819 16.5371 4.59944C17.835 4.34069 19.1803 4.47349 20.4029 4.98104C21.6255 5.4886 22.6705 6.34811 23.4057 7.45088C24.1409 8.55366 24.5333 9.85017 24.5333 11.1765C24.5333 12.955 23.8284 14.6606 22.5736 15.9182C21.3188 17.1758 19.6169 17.8824 17.8424 17.8824ZM39.5655 18.5976C40.9929 16.9867 41.9252 14.9967 42.2504 12.8671C42.5755 10.7375 42.2797 8.55911 41.3983 6.59412C40.517 4.62913 39.0878 2.96131 37.2828 1.79142C35.4777 0.621524 33.3738 -0.000575812 31.2242 3.99919e-07C30.6327 3.99919e-07 30.0654 0.235504 29.6472 0.654703C29.2289 1.0739 28.9939 1.64246 28.9939 2.23529C28.9939 2.82813 29.2289 3.39669 29.6472 3.81589C30.0654 4.23509 30.6327 4.47059 31.2242 4.47059C32.9988 4.47059 34.7006 5.1771 35.9554 6.4347C37.2102 7.69229 37.9151 9.39796 37.9151 11.1765C37.912 12.3505 37.6013 13.5032 37.0142 14.5192C36.4271 15.5352 35.5842 16.3789 34.5697 16.9659C34.239 17.157 33.9628 17.4301 33.7676 17.7588C33.5723 18.0876 33.4645 18.4611 33.4545 18.8435C33.4452 19.223 33.5324 19.5986 33.708 19.9349C33.8836 20.2713 34.1418 20.5572 34.4582 20.7659L35.328 21.3471L35.6179 21.5035C38.3063 22.7815 40.5743 24.8028 42.1549 27.3294C43.7354 29.856 44.5626 32.7827 44.5391 35.7647C44.5391 36.3575 44.7741 36.9261 45.1924 37.3453C45.6106 37.7645 46.1779 38 46.7694 38C47.3609 38 47.9282 37.7645 48.3465 37.3453C48.7647 36.9261 48.9997 36.3575 48.9997 35.7647C49.0179 32.3345 48.1607 28.9566 46.5095 25.9519C44.8583 22.9472 42.4679 20.4156 39.5655 18.5976Z" fill="#52F64F"/>
</svg>
