<svg width="51" height="43" viewBox="0 0 51 43" fill="none" xmlns="http://www.w3.org/2000/svg">
<path fill-rule="evenodd" clip-rule="evenodd" d="M5.57813 0C4.09872 0 2.6799 0.582028 1.6338 1.61805C0.587698 2.65406 4.8866e-06 4.0592 4.8866e-06 5.52435V18.1514C4.8866e-06 19.3258 0.369755 20.4149 1.00088 21.3082C0.34794 22.2338 -0.00150721 23.3359 4.8866e-06 24.465V37.0921C4.8866e-06 40.1415 2.499 42.6164 5.57813 42.6164H45.4219C46.9013 42.6164 48.3201 42.0344 49.3662 40.9984C50.4123 39.9624 51 38.5572 51 37.0921V24.465C51 23.2907 50.6302 22.2016 49.9991 21.3082C50.6302 20.4149 51 19.3258 51 18.1514V5.52435C51 4.0592 50.4123 2.65406 49.3662 1.61805C48.3201 0.582028 46.9013 0 45.4219 0H5.57813ZM5.57813 23.6758C5.36678 23.6758 5.1641 23.7589 5.01465 23.9069C4.86521 24.055 4.78125 24.2557 4.78125 24.465V37.0921C4.78125 37.5277 5.13825 37.8813 5.57813 37.8813H45.4219C45.6332 37.8813 45.8359 37.7981 45.9854 37.6501C46.1348 37.5021 46.2188 37.3014 46.2188 37.0921V24.465C46.2188 24.2557 46.1348 24.055 45.9854 23.9069C45.8359 23.7589 45.6332 23.6758 45.4219 23.6758H5.57813ZM4.78125 5.52435C4.78125 5.31505 4.86521 5.11431 5.01465 4.96631C5.1641 4.81831 5.36678 4.73516 5.57813 4.73516H45.4219C45.6332 4.73516 45.8359 4.81831 45.9854 4.96631C46.1348 5.11431 46.2188 5.31505 46.2188 5.52435V18.1514C46.2188 18.3608 46.1348 18.5615 45.9854 18.7095C45.8359 18.8575 45.6332 18.9406 45.4219 18.9406H5.57813C5.36678 18.9406 5.1641 18.8575 5.01465 18.7095C4.86521 18.5615 4.78125 18.3608 4.78125 18.1514V5.52435ZM22.3125 11.8379C22.3125 11.21 22.5644 10.6078 23.0127 10.1638C23.461 9.71976 24.0691 9.47032 24.7031 9.47032H39.0469C39.6809 9.47032 40.289 9.71976 40.7373 10.1638C41.1856 10.6078 41.4375 11.21 41.4375 11.8379C41.4375 12.4658 41.1856 13.068 40.7373 13.512C40.289 13.956 39.6809 14.2055 39.0469 14.2055H24.7031C24.0691 14.2055 23.461 13.956 23.0127 13.512C22.5644 13.068 22.3125 12.4658 22.3125 11.8379ZM24.7031 28.411C24.0691 28.411 23.461 28.6604 23.0127 29.1044C22.5644 29.5484 22.3125 30.1506 22.3125 30.7785C22.3125 31.4065 22.5644 32.0087 23.0127 32.4527C23.461 32.8967 24.0691 33.1461 24.7031 33.1461H39.0469C39.6809 33.1461 40.289 32.8967 40.7373 32.4527C41.1856 32.0087 41.4375 31.4065 41.4375 30.7785C41.4375 30.1506 41.1856 29.5484 40.7373 29.1044C40.289 28.6604 39.6809 28.411 39.0469 28.411H24.7031ZM9.5625 11.8379C9.5625 11.21 9.81437 10.6078 10.2627 10.1638C10.711 9.71976 11.3191 9.47032 11.9531 9.47032H13.5469C14.1809 9.47032 14.789 9.71976 15.2373 10.1638C15.6856 10.6078 15.9375 11.21 15.9375 11.8379C15.9375 12.4658 15.6856 13.068 15.2373 13.512C14.789 13.956 14.1809 14.2055 13.5469 14.2055H11.9531C11.3191 14.2055 10.711 13.956 10.2627 13.512C9.81437 13.068 9.5625 12.4658 9.5625 11.8379ZM11.9531 28.411C11.3191 28.411 10.711 28.6604 10.2627 29.1044C9.81437 29.5484 9.5625 30.1506 9.5625 30.7785C9.5625 31.4065 9.81437 32.0087 10.2627 32.4527C10.711 32.8967 11.3191 33.1461 11.9531 33.1461H13.5469C14.1809 33.1461 14.789 32.8967 15.2373 32.4527C15.6856 32.0087 15.9375 31.4065 15.9375 30.7785C15.9375 30.1506 15.6856 29.5484 15.2373 29.1044C14.789 28.6604 14.1809 28.411 13.5469 28.411H11.9531Z" fill="#52F64F"/>
</svg>
