<svg width="23" height="18" viewBox="0 0 23 18" fill="none" xmlns="http://www.w3.org/2000/svg">
<path fill-rule="evenodd" clip-rule="evenodd" d="M17.3478 0.656674C16.4407 0.657391 13.8172 0.65046 11.518 0.641256C9.21878 0.632051 6.80234 0.629319 6.14814 0.635219L4.95867 0.645967L8.44559 1.8484C10.3634 2.50977 12.4674 3.23529 13.1212 3.46066C14.511 3.93975 14.9441 4.17901 15.4853 4.76675C15.9964 5.32174 16.19 5.77693 16.8507 7.97562C18.3606 13.0008 19.4278 16.4958 19.4469 16.4777C19.4586 16.4666 19.663 15.433 19.9012 14.1808C20.1393 12.9286 20.3975 11.5741 20.4748 11.1709C21.5771 5.42565 22.0232 2.97528 22.0366 2.59313C22.0638 1.8133 21.7319 1.23147 21.0636 0.887273C20.636 0.667085 20.4289 0.654258 17.3478 0.656674ZM2.33695 2.7103C2.17057 3.61253 1.60758 6.5732 1.08572 9.28965C0.563866 12.0061 0.111878 14.455 0.0813498 14.7317C0.032427 15.1748 0.0498585 15.2864 0.227765 15.6685C0.466187 16.1807 0.916118 16.5806 1.38805 16.7C1.58287 16.7492 2.55034 16.7885 3.74677 16.7959C4.86235 16.8027 8.03557 16.8303 10.7983 16.8571C15.4884 16.9028 17.2339 16.8961 17.0514 16.8333C17.0098 16.8189 15.8329 16.4136 14.4362 15.9326C7.10599 13.4082 7.4187 13.5328 6.77267 12.8806C6.20282 12.3053 5.96116 11.8154 5.51469 10.33C5.28885 9.57859 4.85132 8.13344 4.54231 7.11851C3.69202 4.32563 3.24604 2.84833 2.97171 1.91673C2.8351 1.45265 2.70439 1.07223 2.68132 1.07142C2.65818 1.07061 2.50324 1.80815 2.33695 2.7103ZM10.0035 7.19603C9.82998 7.31023 9.82659 7.33691 9.76648 9.05843C9.72961 10.114 9.73482 10.8656 9.77955 10.9579C9.8808 11.1668 10.0985 11.1576 10.5315 10.9262C12.0287 10.126 13.1365 9.48532 13.1968 9.3848C13.352 9.12561 13.1802 8.96509 11.7946 8.07455C11.0188 7.57588 10.338 7.1482 10.2818 7.12401C10.2256 7.09991 10.1004 7.13228 10.0035 7.19603Z" fill="#7700FF"/>
<path fill-rule="evenodd" clip-rule="evenodd" d="M17.3478 0.656674C16.4407 0.657391 13.8172 0.65046 11.518 0.641256C9.21878 0.632051 6.80234 0.629319 6.14814 0.635219L4.95867 0.645967L8.44559 1.8484C10.3634 2.50977 12.4674 3.23529 13.1212 3.46066C14.511 3.93975 14.9441 4.17901 15.4853 4.76675C15.9964 5.32174 16.19 5.77693 16.8507 7.97562C18.3606 13.0008 19.4278 16.4958 19.4469 16.4777C19.4586 16.4666 19.663 15.433 19.9012 14.1808C20.1393 12.9286 20.3975 11.5741 20.4748 11.1709C21.5771 5.42565 22.0232 2.97528 22.0366 2.59313C22.0638 1.8133 21.7319 1.23147 21.0636 0.887273C20.636 0.667085 20.4289 0.654258 17.3478 0.656674ZM2.33695 2.7103C2.17057 3.61253 1.60758 6.5732 1.08572 9.28965C0.563866 12.0061 0.111878 14.455 0.0813498 14.7317C0.032427 15.1748 0.0498585 15.2864 0.227765 15.6685C0.466187 16.1807 0.916118 16.5806 1.38805 16.7C1.58287 16.7492 2.55034 16.7885 3.74677 16.7959C4.86235 16.8027 8.03557 16.8303 10.7983 16.8571C15.4884 16.9028 17.2339 16.8961 17.0514 16.8333C17.0098 16.8189 15.8329 16.4136 14.4362 15.9326C7.10599 13.4082 7.4187 13.5328 6.77267 12.8806C6.20282 12.3053 5.96116 11.8154 5.51469 10.33C5.28885 9.57859 4.85132 8.13344 4.54231 7.11851C3.69202 4.32563 3.24604 2.84833 2.97171 1.91673C2.8351 1.45265 2.70439 1.07223 2.68132 1.07142C2.65818 1.07061 2.50324 1.80815 2.33695 2.7103ZM10.0035 7.19603C9.82998 7.31023 9.82659 7.33691 9.76648 9.05843C9.72961 10.114 9.73482 10.8656 9.77955 10.9579C9.8808 11.1668 10.0985 11.1576 10.5315 10.9262C12.0287 10.126 13.1365 9.48532 13.1968 9.3848C13.352 9.12561 13.1802 8.96509 11.7946 8.07455C11.0188 7.57588 10.338 7.1482 10.2818 7.12401C10.2256 7.09991 10.1004 7.13228 10.0035 7.19603Z" fill="#4AD73F"/>
</svg>
